<svg id="b4bf6ccb-926a-46f2-885b-1c34c76b84dc" data-name="Layer 1" xmlns="http://www.w3.org/2000/svg" xmlns:xlink="http://www.w3.org/1999/xlink" viewBox="0 0 1908.706 1908.706">
  <defs>
    <style>
      .ba9dff11-b97a-4721-83e7-5d8ff8e60a7b {
        fill: none;
      }

      .a82c0d0a-f2ee-4115-b413-1649ba4ebb40 {
        fill: #149e48;
      }

      .bc93bc9e-7202-4e88-a185-28ce2ea93d91 {
        fill: #fff;
        stroke: #149e48;
        stroke-miterlimit: 10;
        stroke-width: 117.845px;
      }

      .b9fbdaf8-b349-49f0-bec6-5ef93a9bc5c5 {
        clip-path: url(#b39d632d-c893-4286-be98-5e488540712f);
      }

      .ac210a10-316a-4478-94a3-b872e38ee179 {
        clip-path: url(#fd91fc89-8a6f-43e0-8bd7-f648e41b7ebf);
      }

      .a013d7d4-0ce2-4704-8b27-8843b96b9ef8 {
        fill: #f58403;
      }
    </style>
    <clipPath id="b39d632d-c893-4286-be98-5e488540712f">
      <rect class="ba9dff11-b97a-4721-83e7-5d8ff8e60a7b" x="159.325" y="38.781" width="795.028" height="1256.865"/>
    </clipPath>
    <clipPath id="fd91fc89-8a6f-43e0-8bd7-f648e41b7ebf">
      <rect class="ba9dff11-b97a-4721-83e7-5d8ff8e60a7b" x="954.353" y="38.781" width="795.028" height="1256.865"/>
    </clipPath>
  </defs>
  <g>
    <ellipse class="a82c0d0a-f2ee-4115-b413-1649ba4ebb40" cx="1316.553" cy="1674.84" rx="192.391" ry="273.714" transform="translate(-552.152 2697.747) rotate(-80.526)"/>
    <path class="bc93bc9e-7202-4e88-a185-28ce2ea93d91" d="M1292.518,1571.05c-67.161,130.6-272.185,145.681-320.875,147.5-102.422,3.822-292.57-21.978-355.167-143.93-91.853-178.95,117.508-513.169,346.594-509.107C1186.21,1069.469,1383.78,1393.588,1292.518,1571.05Z"/>
    <g>
      <g id="fd5e4c2c-67aa-4acc-bebe-2634fb0e52d4" data-name="&lt;Mirror Repeat&gt;">
        <g class="b9fbdaf8-b349-49f0-bec6-5ef93a9bc5c5">
          <path class="bc93bc9e-7202-4e88-a185-28ce2ea93d91" d="M954.353,97.6c-213.523,12.966-324.914,88.124-384,145.1-91.694,88.429-58.75,134.369-214.119,357.455C283.09,705.18,241.549,744.163,225.287,831.97c-4.717,25.47-24.444,131.986,33.622,231.815,88.057,151.392,286.032,168.793,318.524,171.649,54.038,4.75,129.223-3.912,279.593-21.235,40.571-4.674,74.17-9.157,97.327-12.387"/>
        </g>
      </g>
      <g id="ec00a29c-d2a0-48ef-b0b0-babc4d32e2c7" data-name="&lt;Mirror Repeat&gt;">
        <g class="ac210a10-316a-4478-94a3-b872e38ee179">
          <path class="bc93bc9e-7202-4e88-a185-28ce2ea93d91" d="M954.353,97.6c213.523,12.966,324.914,88.124,384,145.1,91.693,88.429,58.749,134.369,214.119,357.455,73.145,105.025,114.687,144.008,130.949,231.815,4.716,25.47,24.443,131.986-33.622,231.815-88.058,151.392-286.032,168.793-318.525,171.649-54.038,4.75-129.223-3.912-279.593-21.235-40.57-4.674-74.17-9.157-97.327-12.387"/>
        </g>
      </g>
    </g>
    <ellipse class="a82c0d0a-f2ee-4115-b413-1649ba4ebb40" cx="733.368" cy="774.462" rx="78.563" ry="162.57"/>
    <ellipse class="a82c0d0a-f2ee-4115-b413-1649ba4ebb40" cx="1172.601" cy="774.625" rx="78.563" ry="162.57"/>
    <polygon class="a013d7d4-0ce2-4704-8b27-8843b96b9ef8" points="945.479 346.662 795.931 501.798 639.949 347.602 708.05 283.808 462.037 283.808 462.037 514.261 528.872 451.653 528.879 451.647 795.931 715.908 907.525 612.225 1061.738 455.339 945.479 346.662"/>
    <polygon class="a013d7d4-0ce2-4704-8b27-8843b96b9ef8" points="961.948 346.662 1111.495 501.798 1267.477 347.602 1199.376 283.808 1445.39 283.808 1445.39 514.261 1378.554 451.653 1378.547 451.647 1111.495 715.908 999.901 612.225 845.688 455.339 961.948 346.662"/>
    <ellipse class="a82c0d0a-f2ee-4115-b413-1649ba4ebb40" cx="560.679" cy="1621.405" rx="225.877" ry="312.982" transform="translate(-1130.9 1907.543) rotate(-80.526)"/>
    <path class="a82c0d0a-f2ee-4115-b413-1649ba4ebb40" d="M900.206,1218.654c4.318-14.507,22.462-72.14,51.066-76.416,30.2-4.513,59.113,52.372,57.613,76.416C1007.635,1238.707,984.427,1248.748,900.206,1218.654Z"/>
    <path class="a82c0d0a-f2ee-4115-b413-1649ba4ebb40" d="M817.714,115.706C828.59,101.2,874.287,43.565,946.328,39.29c76.052-4.514,148.879,52.372,145.1,76.416C1088.281,135.759,1029.83,145.8,817.714,115.706Z"/>
  </g>
</svg>
